<svg fill="#000000" xmlns="http://www.w3.org/2000/svg" viewBox="0 0 32 32" width="32px" height="32px"><path d="M 6 3 C 4.3549904 3 3 4.3549904 3 6 C 3 7.6450096 4.3549904 9 6 9 C 7.6450096 9 9 7.6450096 9 6 C 9 4.3549904 7.6450096 3 6 3 z M 6 5 C 6.5641294 5 7 5.4358706 7 6 C 7 6.5641294 6.5641294 7 6 7 C 5.4358706 7 5 6.5641294 5 6 C 5 5.4358706 5.4358706 5 6 5 z M 14.708984 7 C 10.462779 7 7 10.46168 7 14.707031 L 7 21.291016 C 7 25.537221 10.46168 29 14.707031 29 L 21.291016 29 C 25.537221 29 29 25.53832 29 21.292969 L 29 14.708984 C 29 10.462779 25.53832 7 21.292969 7 L 14.708984 7 z M 14.708984 9 L 21.292969 9 C 24.457618 9 27 11.543189 27 14.708984 L 27 21.292969 C 27 24.457618 24.456811 27 21.291016 27 L 14.707031 27 C 11.542382 27 9 24.456811 9 21.291016 L 9 14.707031 C 9 11.542382 11.543189 9 14.708984 9 z M 14 11 C 12.35499 11 11 12.35499 11 14 C 11 15.64501 12.35499 17 14 17 C 15.64501 17 17 15.64501 17 14 C 17 12.35499 15.64501 11 14 11 z M 14 13 C 14.564129 13 15 13.435871 15 14 C 15 14.564129 14.564129 15 14 15 C 13.435871 15 13 14.564129 13 14 C 13 13.435871 13.435871 13 14 13 z M 20.5 16 C 18.026563 16 16 18.026563 16 20.5 C 16 22.973437 18.026563 25 20.5 25 C 22.973437 25 25 22.973437 25 20.5 C 25 18.026563 22.973437 16 20.5 16 z M 20.5 18 C 21.892557 18 23 19.107443 23 20.5 C 23 21.892557 21.892557 23 20.5 23 C 19.107443 23 18 21.892557 18 20.5 C 18 19.107443 19.107443 18 20.5 18 z"/></svg>