<svg width="16" height="16" viewBox="0 0 16 16" fill="none" xmlns="http://www.w3.org/2000/svg">
<path d="M2 8H8V9H2V8Z" fill="black"/>
<path d="M1 5.5H6V6.5H1V5.5Z" fill="black"/>
<path d="M14.9595 8.303L13.4595 4.803C13.421 4.71304 13.3569 4.63637 13.2752 4.5825C13.1936 4.52863 13.0979 4.49995 13 4.5H11.5V3.5C11.5 3.36739 11.4473 3.24021 11.3536 3.14645C11.2598 3.05268 11.1326 3 11 3H3V4H10.5V10.278C10.2722 10.4103 10.0728 10.5864 9.91333 10.7961C9.75388 11.0059 9.63754 11.2451 9.571 11.5H6.429C6.3073 11.0287 6.01788 10.6179 5.615 10.3447C5.21211 10.0715 4.72341 9.9546 4.2405 10.0159C3.75759 10.0773 3.31363 10.3126 2.99184 10.6779C2.67004 11.0431 2.49251 11.5132 2.49251 12C2.49251 12.4868 2.67004 12.9569 2.99184 13.3221C3.31363 13.6874 3.75759 13.9227 4.2405 13.9841C4.72341 14.0454 5.21211 13.9285 5.615 13.6553C6.01788 13.3821 6.3073 12.9713 6.429 12.5H9.571C9.67977 12.9291 9.92851 13.3097 10.2779 13.5816C10.6273 13.8535 11.0573 14.0011 11.5 14.0011C11.9427 14.0011 12.3727 13.8535 12.7221 13.5816C13.0715 13.3097 13.3202 12.9291 13.429 12.5H14.5C14.6326 12.5 14.7598 12.4473 14.8536 12.3536C14.9473 12.2598 15 12.1326 15 12V8.5C15 8.43226 14.9862 8.36523 14.9595 8.303V8.303ZM4.5 13C4.30222 13 4.10888 12.9414 3.94443 12.8315C3.77998 12.7216 3.65181 12.5654 3.57612 12.3827C3.50043 12.2 3.48063 11.9989 3.51921 11.8049C3.5578 11.6109 3.65304 11.4327 3.79289 11.2929C3.93275 11.153 4.11093 11.0578 4.30491 11.0192C4.49889 10.9806 4.69996 11.0004 4.88268 11.0761C5.06541 11.1518 5.22159 11.28 5.33147 11.4444C5.44135 11.6089 5.5 11.8022 5.5 12C5.49973 12.2651 5.39429 12.5193 5.20681 12.7068C5.01933 12.8943 4.76513 12.9997 4.5 13V13ZM11.5 5.5H12.67L13.742 8H11.5V5.5ZM11.5 13C11.3022 13 11.1089 12.9414 10.9444 12.8315C10.78 12.7216 10.6518 12.5654 10.5761 12.3827C10.5004 12.2 10.4806 11.9989 10.5192 11.8049C10.5578 11.6109 10.653 11.4327 10.7929 11.2929C10.9327 11.153 11.1109 11.0578 11.3049 11.0192C11.4989 10.9806 11.7 11.0004 11.8827 11.0761C12.0654 11.1518 12.2216 11.28 12.3315 11.4444C12.4413 11.6089 12.5 11.8022 12.5 12C12.4997 12.2651 12.3943 12.5193 12.2068 12.7068C12.0193 12.8943 11.7651 12.9997 11.5 13ZM14 11.5H13.429C13.3189 11.0717 13.0697 10.6921 12.7206 10.4206C12.3715 10.1492 11.9422 10.0012 11.5 10V9H14V11.5Z" fill="black"/>
</svg>