<svg width="141" height="117" viewBox="0 0 141 117" fill="none" xmlns="http://www.w3.org/2000/svg">
<path d="M17.625 58.5H70.5V65.8125H17.625V58.5Z" fill="black"/>
<path d="M8.8125 40.2188H52.875V47.5312H8.8125V40.2188Z" fill="black"/>
<path d="M131.831 60.7119L118.612 35.1207C118.273 34.4629 117.708 33.9023 116.988 33.5084C116.268 33.1146 115.425 32.9048 114.562 32.9052H101.344V25.5934C101.344 24.6238 100.88 23.6939 100.053 23.0083C99.2269 22.3227 98.1061 21.9375 96.9375 21.9375H26.4375V29.2493H92.5312V75.1527C90.5235 76.1201 88.7663 77.4076 87.3612 78.9411C85.9561 80.4747 84.9308 82.2238 84.3444 84.0877H56.6556C55.5831 80.6415 53.0326 77.638 49.4821 75.6404C45.9317 73.6428 41.625 72.7881 37.3694 73.2366C33.1138 73.6851 29.2014 75.4059 26.3656 78.0766C23.5298 80.7473 21.9652 84.1844 21.9652 87.7436C21.9652 91.3029 23.5298 94.74 26.3656 97.4107C29.2014 100.081 33.1138 101.802 37.3694 102.251C41.625 102.699 45.9317 101.844 49.4821 99.8469C53.0326 97.8492 55.5831 94.8458 56.6556 91.3995H84.3444C85.3029 94.5372 87.495 97.32 90.5739 99.3079C93.6527 101.296 97.4426 102.375 101.344 102.375C105.245 102.375 109.035 101.296 112.114 99.3079C115.192 97.32 117.385 94.5372 118.343 91.3995H127.781C128.95 91.3995 130.071 91.0144 130.897 90.3288C131.723 89.6431 132.187 88.7132 132.187 87.7436V62.1524C132.188 61.6571 132.066 61.167 131.831 60.7119V60.7119ZM39.6562 95.0554C37.9133 95.0554 36.2095 94.6266 34.7603 93.8232C33.3111 93.0197 32.1816 91.8778 31.5146 90.5417C30.8476 89.2057 30.673 87.7355 31.0131 86.3172C31.3531 84.8988 32.1924 83.596 33.4249 82.5734C34.6573 81.5509 36.2276 80.8545 37.937 80.5723C39.6465 80.2902 41.4184 80.435 43.0286 80.9884C44.6389 81.5418 46.0152 82.479 46.9836 83.6814C47.9519 84.8838 48.4687 86.2975 48.4687 87.7436C48.4664 89.6823 47.5372 91.5409 45.885 92.9117C44.2329 94.2825 41.9927 95.0535 39.6562 95.0554V95.0554ZM101.344 40.217H111.654L121.101 58.4965H101.344V40.217ZM101.344 95.0554C99.6008 95.0554 97.897 94.6266 96.4478 93.8232C94.9986 93.0197 93.8691 91.8778 93.2021 90.5417C92.5351 89.2057 92.3605 87.7355 92.7006 86.3172C93.0406 84.8988 93.8799 83.596 95.1124 82.5734C96.3448 81.5509 97.915 80.8545 99.6245 80.5723C101.334 80.2902 103.106 80.435 104.716 80.9884C106.326 81.5418 107.703 82.479 108.671 83.6814C109.639 84.8838 110.156 86.2975 110.156 87.7436C110.154 89.6823 109.225 91.5409 107.573 92.9117C105.92 94.2825 103.68 95.0535 101.344 95.0554ZM123.375 84.0877H118.343C117.372 80.9562 115.177 78.1805 112.1 76.1956C109.024 74.2108 105.241 73.129 101.344 73.1201V65.8083H123.375V84.0877Z" fill="black"/>
</svg>